<svg xmlns="http://www.w3.org/2000/svg" version="1.1" xmlns:xlink="http://www.w3.org/1999/xlink" width="512" height="512" x="0" y="0" viewBox="0 0 463.996 463.996" style="enable-background:new 0 0 512 512" xml:space="preserve" class=""><g><path fill="#fcf4f6" d="m407.049 70.652 12.95 14.08 18.12 10.79s5.6 33.09-12.13 84.24-83.99 251.41-83.99 251.41l-248.28 8.7-61.49-56.62 278.28-323.49z" opacity="1" data-original="#fcf4f6"></path><path fill="#a4a4f7" d="m462.309 125.352-105.54 305.82a30.64 30.64 0 0 1-29.47 20.65l-256.06-4.15a30.68 30.68 0 0 1-24.95-13.56l-41.09-61.16a30.68 30.68 0 0 1-2.45-29.78l133.65-293.52a30.69 30.69 0 0 1 25.16-17.83l217.44-19.53a30.782 30.782 0 0 1 24.34 8.78l1.94 1.93a30.62 30.62 0 0 1 7.31 31.94l-5.54 15.71-5 14.11-98.62 279.72a31.19 31.19 0 0 1-29.43 20.82l-197.62.27a11.551 11.551 0 0 0-10 17.37 164.438 164.438 0 0 0 10.71 16.23 11.582 11.582 0 0 0 9.36 4.59l223.8-2.59a31.21 31.21 0 0 0 29.41-21.6l89.94-278.33a34.65 34.65 0 0 0-7.43-34.07l-2.17-2.44h13.32c16.928-.015 30.662 13.695 30.677 30.623a30.662 30.662 0 0 1-1.677 10.027z" opacity="1" data-original="#a4a4f7"></path><path fill="#c5c5ff" d="m392.169 14.012-110.87 320.71a31.2 31.2 0 0 1-29.12 21l-252 2.95a30.58 30.58 0 0 1 2.57-15.5l133.65-293.52a30.69 30.69 0 0 1 25.16-17.83l217.44-19.53a30.53 30.53 0 0 1 13.17 1.72z" opacity="1" data-original="#c5c5ff" class=""></path><path fill="#ff9fb3" d="M133.479 163.412c8.34 30 35.54 63.08 51 80.18a18 18 0 0 0 23.07 3.48c21.47-13.23 67.08-44.43 88-80.56 9.52-16.45 11.88-35.71 5.25-51.7-5.28-12.75-16.64-24.94-40.26-23.37-43.18 2.87-53.1 49.37-53.1 49.37s2.85-46-34.9-43.53c-15.27 1-25.07 9.72-31.28 19a58.421 58.421 0 0 0-7.78 47.13z" opacity="1" data-original="#ff9fb3" class=""></path></g></svg>